<svg xmlns="http://www.w3.org/2000/svg" xmlns:xlink="http://www.w3.org/1999/xlink" width="1000" zoomAndPan="magnify" viewBox="0 0 750 749.999995" height="1000" preserveAspectRatio="xMidYMid meet" version="1.0"><defs><clipPath id="d2e54d77c4"><path d="M 332 171 L 446 171 L 446 547 L 332 547 Z M 332 171 " clip-rule="nonzero"/></clipPath><clipPath id="55cc38fc13"><path d="M 164.378906 393.9375 L 354.980469 164.214844 L 585.859375 355.773438 L 395.257812 585.496094 Z M 164.378906 393.9375 " clip-rule="nonzero"/></clipPath><clipPath id="431f412ae4"><path d="M 585.621094 356.0625 L 395.019531 585.785156 L 164.140625 394.226562 L 354.742188 164.503906 Z M 585.621094 356.0625 " clip-rule="nonzero"/></clipPath><clipPath id="53fd585657"><path d="M 585.621094 356.0625 L 395.019531 585.785156 L 164.140625 394.226562 L 354.742188 164.503906 Z M 585.621094 356.0625 " clip-rule="nonzero"/></clipPath><clipPath id="c3bd3898bb"><path d="M 340 476 L 425 476 L 425 553 L 340 553 Z M 340 476 " clip-rule="nonzero"/></clipPath><clipPath id="8d482b4af0"><path d="M 164.378906 393.9375 L 354.980469 164.214844 L 585.859375 355.773438 L 395.257812 585.496094 Z M 164.378906 393.9375 " clip-rule="nonzero"/></clipPath><clipPath id="3fade0cc65"><path d="M 585.621094 356.0625 L 395.019531 585.785156 L 164.140625 394.226562 L 354.742188 164.503906 Z M 585.621094 356.0625 " clip-rule="nonzero"/></clipPath><clipPath id="f9f304d525"><path d="M 585.621094 356.0625 L 395.019531 585.785156 L 164.140625 394.226562 L 354.742188 164.503906 Z M 585.621094 356.0625 " clip-rule="nonzero"/></clipPath></defs><g clip-path="url(#d2e54d77c4)"><g clip-path="url(#55cc38fc13)"><g clip-path="url(#431f412ae4)"><g clip-path="url(#53fd585657)"><path fill="#231f20" d="M 353.828125 185.890625 C 372.78125 196.011719 386.679688 215.277344 398.605469 232.640625 C 410.355469 249.757812 420.03125 268.292969 425.894531 288.273438 C 428.550781 297.097656 430.265625 306.105469 431.035156 315.289062 C 431.804688 324.476562 431.613281 333.644531 430.460938 342.789062 C 429.289062 351.984375 426.949219 360.871094 423.4375 369.453125 C 420.144531 377.378906 415.765625 386.050781 408.203125 390.710938 C 400.433594 395.527344 390.386719 393.425781 382.382812 390.226562 C 378.277344 388.59375 374.414062 386.511719 370.796875 383.976562 C 367.175781 381.445312 363.894531 378.527344 360.957031 375.230469 C 353.289062 366.550781 335.753906 333.898438 359.523438 334.136719 C 378.480469 334.320312 387.15625 356.796875 392.144531 371.683594 C 397.667969 388.382812 400.511719 405.53125 400.679688 423.128906 C 400.808594 432.910156 400.121094 442.632812 398.617188 452.300781 C 397.113281 461.964844 394.8125 471.441406 391.71875 480.722656 C 388.503906 490.335938 384.496094 499.609375 379.707031 508.546875 C 377.535156 512.679688 375.136719 516.660156 372.558594 520.542969 C 369.980469 524.421875 367.042969 530.222656 363.28125 533 C 355.765625 538.582031 364.066406 550.507812 371.585938 544.929688 C 375.894531 541.726562 379.054688 536.640625 382.109375 532.246094 C 385.164062 527.851562 388.128906 523.09375 390.839844 518.339844 C 395.867188 509.523438 400.105469 500.339844 403.554688 490.792969 C 407.140625 480.878906 409.902344 470.738281 411.84375 460.375 C 413.785156 450.011719 414.878906 439.558594 415.128906 429.019531 C 415.398438 418.558594 414.777344 408.148438 413.257812 397.796875 C 411.742188 387.441406 409.351562 377.296875 406.089844 367.355469 C 399.40625 347.132812 387.765625 323.175781 364.113281 319.929688 C 352.824219 318.371094 339.902344 322.921875 335.0625 333.957031 C 330.6875 343.945312 333.773438 356.191406 337.949219 365.71875 C 339.042969 368.210938 340.269531 370.632812 341.636719 372.984375 C 343.003906 375.335938 344.5 377.605469 346.121094 379.785156 C 347.746094 381.96875 349.488281 384.054688 351.351562 386.035156 C 353.210938 388.019531 355.179688 389.894531 357.25 391.652344 C 359.324219 393.414062 361.492188 395.050781 363.753906 396.566406 C 366.011719 398.078125 368.351562 399.460938 370.769531 400.707031 C 373.183594 401.957031 375.664062 403.0625 378.207031 404.027344 C 380.753906 404.996094 383.34375 405.8125 385.980469 406.484375 C 437.996094 419.414062 449.445312 345.152344 445.027344 309.113281 C 441.832031 282.878906 431.65625 258.085938 417.933594 235.625 C 410.640625 223.792969 402.511719 212.566406 393.550781 201.941406 C 383.875 190.347656 373.28125 179.820312 359.847656 172.644531 C 351.613281 168.242188 345.640625 181.503906 353.878906 185.90625 Z M 353.828125 185.890625 " fill-opacity="1" fill-rule="nonzero"/></g></g></g></g><g clip-path="url(#c3bd3898bb)"><g clip-path="url(#8d482b4af0)"><g clip-path="url(#3fade0cc65)"><g clip-path="url(#f9f304d525)"><path fill="#231f20" d="M 416.660156 533.035156 L 357.753906 538.328125 L 365.589844 546.742188 C 366.488281 541.015625 366.902344 535.253906 366.820312 529.457031 C 366.742188 523.660156 366.171875 517.914062 365.117188 512.214844 C 364.058594 506.515625 362.527344 500.949219 360.519531 495.511719 C 358.515625 490.074219 356.066406 484.847656 353.171875 479.828125 C 348.570312 471.726562 336.617188 480.066406 341.238281 488.144531 C 343.621094 492.378906 345.632812 496.78125 347.273438 501.355469 C 348.910156 505.929688 350.15625 510.609375 351.003906 515.394531 C 351.855469 520.179688 352.296875 525.003906 352.332031 529.863281 C 352.367188 534.726562 351.996094 539.554688 351.214844 544.355469 C 351.128906 544.90625 351.105469 545.457031 351.144531 546.011719 C 351.183594 546.570312 351.28125 547.113281 351.445312 547.644531 C 351.605469 548.179688 351.828125 548.6875 352.105469 549.167969 C 352.382812 549.652344 352.710938 550.097656 353.089844 550.503906 C 353.46875 550.914062 353.886719 551.273438 354.347656 551.585938 C 354.808594 551.898438 355.300781 552.152344 355.820312 552.355469 C 356.339844 552.554688 356.875 552.695312 357.425781 552.773438 C 357.976562 552.855469 358.53125 552.871094 359.085938 552.824219 L 417.992188 547.53125 C 427.3125 546.683594 425.980469 532.214844 416.648438 533.0625 Z M 416.660156 533.035156 " fill-opacity="1" fill-rule="nonzero"/></g></g></g></g></svg>