<svg xmlns="http://www.w3.org/2000/svg" xmlns:xlink="http://www.w3.org/1999/xlink" width="1000" zoomAndPan="magnify" viewBox="0 0 750 749.999995" height="1000" preserveAspectRatio="xMidYMid meet" version="1.0"><defs><g/><clipPath id="8fa62338dc"><path d="M 251 312.625 L 349.6875 312.625 L 349.6875 389 L 251 389 Z M 251 312.625 " clip-rule="nonzero"/></clipPath><clipPath id="655c486543"><path d="M 250 313.027344 L 348.15625 313.027344 L 348.15625 389 L 250 389 Z M 250 313.027344 " clip-rule="nonzero"/></clipPath><clipPath id="70a57bb78c"><path d="M 251 314.351562 L 349.6875 314.351562 L 349.6875 390.851562 L 251 390.851562 Z M 251 314.351562 " clip-rule="nonzero"/></clipPath></defs><g clip-path="url(#8fa62338dc)"><path fill="#000000" d="M 259.460938 362.894531 C 268.179688 352.453125 282.164062 352.65625 294.832031 352.960938 C 298.378906 353.0625 301.824219 353.164062 305.066406 352.960938 C 310.742188 352.65625 317.9375 351.035156 325.132812 348.300781 C 330.101562 346.375 335.066406 343.941406 339.421875 341.003906 C 331.621094 353.570312 327.769531 354.175781 316.925781 357.015625 C 336.28125 356.40625 341.148438 343.433594 347.023438 331.882812 C 339.625 339.078125 334.355469 342.726562 324.425781 346.476562 C 317.535156 349.109375 310.539062 350.730469 304.964844 351.035156 C 301.824219 351.238281 298.378906 351.136719 294.832031 351.035156 C 281.65625 350.730469 267.164062 350.429688 257.941406 361.675781 Z M 260.273438 386.609375 C 263.820312 387.113281 267.164062 385.289062 268.683594 382.148438 C 270.003906 379.515625 269.597656 376.472656 267.976562 374.140625 C 270.105469 377.082031 270.304688 381.035156 268.382812 384.175781 C 266.152344 387.824219 261.488281 389.34375 257.535156 387.722656 C 246.1875 383.261719 253.789062 367.65625 262.605469 363.195312 C 275.273438 356.8125 291.996094 362.589844 305.980469 361.878906 C 314.390625 361.472656 321.6875 360.257812 328.882812 355.902344 C 324.019531 362.082031 320.574219 367.65625 312.667969 370.59375 C 307.804688 372.417969 302.230469 372.519531 296.046875 370.695312 C 291.488281 369.378906 283.582031 366.238281 275.679688 370.292969 C 281.960938 365.425781 289.460938 366.746094 296.554688 368.871094 C 302.332031 370.492188 307.398438 370.394531 311.960938 368.769531 C 315.910156 367.351562 319.355469 364.71875 322.398438 361.171875 C 316.722656 362.792969 311.25 363.601562 305.980469 363.804688 C 292.601562 364.515625 275.171875 358.941406 263.414062 364.921875 C 254.496094 369.480469 248.71875 384.886719 260.273438 386.609375 Z M 345.503906 320.023438 C 342.972656 331.882812 336.179688 335.023438 329.796875 338.570312 C 347.226562 333.300781 347.328125 319.71875 349.863281 312.625 C 334.050781 328.132812 309.933594 343.132812 288.042969 347.691406 C 305.472656 348.703125 335.167969 330.765625 345.503906 320.023438 Z M 345.503906 320.023438 " fill-opacity="1" fill-rule="nonzero"/></g><g fill="#000000" fill-opacity="1"><g transform="translate(353.404086, 370.972706)"><g><path d="M 21.140625 -33.875 C 21.472656 -33.875 21.640625 -33.6875 21.640625 -33.3125 C 21.640625 -33.175781 21.582031 -33.054688 21.46875 -32.953125 C 19.625 -31.097656 17.492188 -30.171875 15.078125 -30.171875 C 14.503906 -30.171875 13.863281 -30.492188 13.15625 -31.140625 C 12.457031 -31.796875 12.109375 -32.738281 12.109375 -33.96875 C 12.109375 -35.195312 12.851562 -36.566406 14.34375 -38.078125 C 15.84375 -39.585938 17.925781 -41.015625 20.59375 -42.359375 C 23.269531 -43.710938 26.609375 -44.914062 30.609375 -45.96875 C 34.609375 -47.03125 38.203125 -47.5625 41.390625 -47.5625 C 44.578125 -47.5625 47.191406 -47.300781 49.234375 -46.78125 C 51.285156 -46.269531 52.882812 -45.632812 54.03125 -44.875 C 55.1875 -44.113281 56.140625 -43.257812 56.890625 -42.3125 C 58.148438 -40.726562 58.78125 -39.117188 58.78125 -37.484375 C 58.78125 -35.847656 58.25 -34.160156 57.1875 -32.421875 C 56.132812 -30.679688 54.765625 -29.132812 53.078125 -27.78125 C 51.398438 -26.4375 49.472656 -25.179688 47.296875 -24.015625 C 43.222656 -21.859375 38.867188 -20.273438 34.234375 -19.265625 C 35.023438 -18.453125 36.703125 -16.410156 39.265625 -13.140625 C 41.828125 -9.878906 44.164062 -7.148438 46.28125 -4.953125 C 48.40625 -2.753906 50.050781 -1.65625 51.21875 -1.65625 L 52.3125 -2.046875 C 52.550781 -2.046875 52.671875 -1.953125 52.671875 -1.765625 C 52.671875 -1.578125 52.269531 -1.035156 51.46875 -0.140625 C 50.664062 0.742188 49.96875 1.414062 49.375 1.875 C 48.78125 2.34375 47.972656 2.578125 46.953125 2.578125 C 45.929688 2.578125 44.769531 2.082031 43.46875 1.09375 C 42.175781 0.101562 40.757812 -1.289062 39.21875 -3.09375 C 37.675781 -4.90625 36.289062 -6.609375 35.0625 -8.203125 C 33.832031 -9.796875 32.425781 -11.671875 30.84375 -13.828125 C 29.257812 -15.992188 28.171875 -17.460938 27.578125 -18.234375 C 27.359375 -17.890625 26.796875 -17.015625 25.890625 -15.609375 C 24.984375 -14.210938 24.320312 -13.1875 23.90625 -12.53125 C 23.488281 -11.875 22.882812 -10.910156 22.09375 -9.640625 C 21.300781 -8.378906 20.6875 -7.363281 20.25 -6.59375 C 19.039062 -4.550781 18.195312 -3.023438 17.71875 -2.015625 C 17.25 -1.003906 16.476562 -0.5 15.40625 -0.5 L 14.25 -0.53125 L 13.265625 -0.5 C 11.898438 -0.5 11.21875 -1.066406 11.21875 -2.203125 C 11.21875 -3.066406 11.582031 -4.296875 12.3125 -5.890625 C 13.050781 -7.484375 16.957031 -13.429688 24.03125 -23.734375 C 31.113281 -34.035156 35.019531 -39.53125 35.75 -40.21875 C 36.476562 -40.914062 37.019531 -41.304688 37.375 -41.390625 C 37.632812 -41.585938 37.804688 -41.6875 37.890625 -41.6875 L 38.484375 -41.59375 L 39.046875 -41.6875 C 39.242188 -41.6875 39.421875 -41.601562 39.578125 -41.4375 C 39.734375 -41.269531 39.84375 -41.164062 39.90625 -41.125 C 40.832031 -40.445312 41.296875 -39.875 41.296875 -39.40625 C 41.296875 -38.945312 41.175781 -38.503906 40.9375 -38.078125 C 40.707031 -37.648438 40.078125 -36.6875 39.046875 -35.1875 C 38.015625 -33.695312 36.65625 -31.757812 34.96875 -29.375 C 33.289062 -26.988281 32.078125 -25.253906 31.328125 -24.171875 C 33.128906 -24.265625 35.296875 -24.816406 37.828125 -25.828125 C 40.359375 -26.835938 42.726562 -28.050781 44.9375 -29.46875 C 47.144531 -30.882812 49.035156 -32.421875 50.609375 -34.078125 C 52.179688 -35.742188 52.96875 -37.191406 52.96875 -38.421875 C 52.96875 -39.078125 52.625 -39.675781 51.9375 -40.21875 C 51.257812 -40.757812 50.40625 -41.179688 49.375 -41.484375 C 47.3125 -42.109375 44.976562 -42.421875 42.375 -42.421875 C 39.78125 -42.421875 36.492188 -41.859375 32.515625 -40.734375 C 28.535156 -39.609375 25.632812 -38.535156 23.8125 -37.515625 C 21.988281 -36.492188 20.671875 -35.625 19.859375 -34.90625 C 19.046875 -34.195312 18.640625 -33.695312 18.640625 -33.40625 C 18.640625 -33.257812 18.863281 -33.1875 19.3125 -33.1875 C 19.757812 -33.1875 20.160156 -33.300781 20.515625 -33.53125 C 20.867188 -33.757812 21.078125 -33.875 21.140625 -33.875 Z M 21.140625 -33.875 "/></g></g></g><g fill="#000000" fill-opacity="1"><g transform="translate(402.942856, 370.972706)"><g><path d="M 24.4375 -25.125 C 25.09375 -25.125 25.765625 -24.828125 26.453125 -24.234375 C 27.148438 -23.640625 27.5 -22.734375 27.5 -21.515625 C 27.5 -20.296875 27.070312 -18.710938 26.21875 -16.765625 C 25.363281 -14.828125 24.1875 -12.847656 22.6875 -10.828125 C 21.195312 -8.816406 19.554688 -6.925781 17.765625 -5.15625 C 15.972656 -3.382812 14.035156 -1.929688 11.953125 -0.796875 C 9.878906 0.328125 7.992188 0.890625 6.296875 0.890625 C 4.609375 0.890625 3.25 0.359375 2.21875 -0.703125 C 1.195312 -1.773438 0.6875 -3.257812 0.6875 -5.15625 C 0.6875 -7.0625 1.15625 -9.164062 2.09375 -11.46875 C 3.03125 -13.78125 4.234375 -15.820312 5.703125 -17.59375 C 7.179688 -19.363281 8.773438 -20.953125 10.484375 -22.359375 C 14.066406 -25.242188 17.210938 -26.6875 19.921875 -26.6875 C 21.128906 -26.6875 22.039062 -26.390625 22.65625 -25.796875 C 22.875 -25.597656 22.984375 -25.421875 22.984375 -25.265625 L 22.984375 -25.0625 C 23.296875 -25.101562 23.78125 -25.125 24.4375 -25.125 Z M 21.109375 -20.75 L 20.875 -20.75 C 20.101562 -20.75 19.71875 -21.304688 19.71875 -22.421875 C 18.113281 -21.898438 16.429688 -20.976562 14.671875 -19.65625 C 12.910156 -18.332031 11.335938 -16.769531 9.953125 -14.96875 C 7.140625 -11.363281 5.710938 -8.320312 5.671875 -5.84375 C 5.671875 -4.601562 6.117188 -3.984375 7.015625 -3.984375 C 7.921875 -3.984375 9.265625 -4.578125 11.046875 -5.765625 C 12.828125 -6.953125 14.59375 -8.644531 16.34375 -10.84375 C 18.09375 -13.050781 19.398438 -14.960938 20.265625 -16.578125 C 21.128906 -18.191406 21.5625 -19.289062 21.5625 -19.875 C 21.5625 -20.457031 21.410156 -20.75 21.109375 -20.75 Z M 21.109375 -20.75 "/></g></g></g><g fill="#000000" fill-opacity="1"><g transform="translate(427.67926, 370.972706)"><g><path d="M 36.3125 -24.5 L 35.921875 -26.09375 C 35.921875 -26.988281 36.234375 -27.691406 36.859375 -28.203125 C 37.484375 -28.722656 38.269531 -28.984375 39.21875 -28.984375 C 41.0625 -28.984375 41.984375 -27.8125 41.984375 -25.46875 C 41.984375 -23.769531 41.144531 -21.429688 39.46875 -18.453125 C 37.800781 -15.472656 35.828125 -12.59375 33.546875 -9.8125 C 31.273438 -7.03125 28.863281 -4.609375 26.3125 -2.546875 C 23.769531 -0.492188 21.8125 0.53125 20.4375 0.53125 C 19.0625 0.53125 18.085938 0.15625 17.515625 -0.59375 C 16.941406 -1.34375 16.65625 -2.0625 16.65625 -2.75 C 16.65625 -3.445312 16.6875 -4.101562 16.75 -4.71875 C 17 -6.875 17.59375 -8.929688 18.53125 -10.890625 C 16.175781 -7.804688 13.644531 -5.035156 10.9375 -2.578125 C 8.238281 -0.128906 5.976562 1.09375 4.15625 1.09375 C 3.28125 1.09375 2.578125 0.828125 2.046875 0.296875 C 1.515625 -0.234375 1.25 -1.128906 1.25 -2.390625 C 1.25 -3.648438 2.007812 -6.023438 3.53125 -9.515625 C 5.050781 -13.003906 6.5 -15.800781 7.875 -17.90625 C 7.375 -17.601562 6.929688 -17.453125 6.546875 -17.453125 C 6.160156 -17.453125 5.742188 -17.664062 5.296875 -18.09375 C 4.847656 -18.519531 4.625 -18.851562 4.625 -19.09375 C 4.625 -19.332031 4.785156 -19.679688 5.109375 -20.140625 C 5.441406 -20.609375 6.707031 -21.75 8.90625 -23.5625 C 11.101562 -25.375 12.609375 -26.28125 13.421875 -26.28125 C 14.234375 -26.28125 15.007812 -26.125 15.75 -25.8125 C 16.488281 -25.507812 16.859375 -25.085938 16.859375 -24.546875 C 16.859375 -24.015625 15.328125 -20.878906 12.265625 -15.140625 C 9.210938 -9.398438 7.6875 -6.289062 7.6875 -5.8125 C 7.6875 -5.738281 7.707031 -5.703125 7.75 -5.703125 C 8.207031 -5.703125 10.507812 -8.054688 14.65625 -12.765625 C 18.800781 -17.472656 22.0625 -21.34375 24.4375 -24.375 C 24.769531 -24.925781 25.265625 -25.203125 25.921875 -25.203125 L 26.21875 -25.171875 L 28.03125 -25.53125 C 28.320312 -25.53125 28.601562 -25.421875 28.875 -25.203125 C 29.144531 -24.984375 29.28125 -24.785156 29.28125 -24.609375 C 29.28125 -24.429688 28.890625 -23.640625 28.109375 -22.234375 C 27.335938 -20.828125 26.070312 -18.164062 24.3125 -14.25 C 22.550781 -10.332031 21.671875 -7.582031 21.671875 -6 C 21.671875 -5.601562 21.8125 -5.40625 22.09375 -5.40625 C 22.925781 -5.40625 24.664062 -6.914062 27.3125 -9.9375 C 29.96875 -12.96875 32.128906 -15.867188 33.796875 -18.640625 C 35.472656 -21.410156 36.3125 -23.363281 36.3125 -24.5 Z M 36.3125 -24.5 "/></g></g></g><g fill="#000000" fill-opacity="1"><g transform="translate(465.080701, 370.972706)"><g><path d="M 24.734375 -24.671875 C 24.734375 -23.222656 24.144531 -21.945312 22.96875 -20.84375 C 21.789062 -19.75 20.457031 -19.203125 18.96875 -19.203125 C 18.476562 -19.203125 18.15625 -19.316406 18 -19.546875 C 17.851562 -19.773438 17.78125 -20.078125 17.78125 -20.453125 C 17.78125 -20.828125 17.820312 -21.1875 17.90625 -21.53125 C 17.113281 -21.269531 16.234375 -20.863281 15.265625 -20.3125 C 14.296875 -19.769531 13.109375 -18.957031 11.703125 -17.875 C 10.296875 -16.800781 9.59375 -16 9.59375 -15.46875 C 9.59375 -15.289062 9.847656 -15.203125 10.359375 -15.203125 C 10.878906 -15.203125 11.675781 -15.382812 12.75 -15.75 C 13.832031 -16.113281 14.585938 -16.296875 15.015625 -16.296875 C 15.453125 -16.296875 15.734375 -16.273438 15.859375 -16.234375 C 16.148438 -16.078125 16.457031 -15.738281 16.78125 -15.21875 C 17.113281 -14.707031 17.28125 -14.300781 17.28125 -14 C 17.28125 -13.707031 16.992188 -13.316406 16.421875 -12.828125 C 15.847656 -12.347656 15.195312 -11.976562 14.46875 -11.71875 C 13.75 -11.46875 13.269531 -11.273438 13.03125 -11.140625 C 8.382812 -8.546875 6.0625 -6.769531 6.0625 -5.8125 C 6.0625 -4.09375 7.523438 -3.234375 10.453125 -3.234375 C 12.328125 -3.234375 14.207031 -3.828125 16.09375 -5.015625 C 17.695312 -6.023438 19.140625 -7.050781 20.421875 -8.09375 C 21.710938 -9.132812 22.53125 -9.773438 22.875 -10.015625 C 23.21875 -10.265625 23.472656 -10.390625 23.640625 -10.390625 C 24.210938 -10.390625 24.5 -9.75 24.5 -8.46875 C 24.5 -7.195312 24.421875 -6.359375 24.265625 -5.953125 C 24.117188 -5.546875 23.679688 -5.046875 22.953125 -4.453125 C 18.242188 -0.628906 13.789062 1.28125 9.59375 1.28125 C 7.351562 1.28125 5.5625 0.972656 4.21875 0.359375 C 1.757812 -0.753906 0.53125 -2.46875 0.53125 -4.78125 C 0.53125 -7.8125 2.628906 -10.109375 6.828125 -11.671875 C 5.992188 -12.046875 5.453125 -12.523438 5.203125 -13.109375 C 4.960938 -13.691406 4.84375 -14.625 4.84375 -15.90625 C 4.84375 -17.195312 5.441406 -18.5625 6.640625 -20 C 7.835938 -21.4375 9.304688 -22.617188 11.046875 -23.546875 C 14.921875 -25.640625 18.375 -26.6875 21.40625 -26.6875 C 22.132812 -26.6875 22.867188 -26.507812 23.609375 -26.15625 C 24.359375 -25.800781 24.734375 -25.304688 24.734375 -24.671875 Z M 24.734375 -24.671875 "/></g></g></g><g fill="#000000" fill-opacity="1"><g transform="translate(486.518918, 370.972706)"><g><path d="M 12.03125 10.953125 C 11.925781 11.054688 11.59375 11.609375 11.03125 12.609375 C 10.46875 13.609375 9.867188 14.617188 9.234375 15.640625 C 8.597656 16.671875 7.8125 17.644531 6.875 18.5625 C 5.9375 19.488281 5.15625 19.988281 4.53125 20.0625 C 3.90625 20.144531 3.503906 20.1875 3.328125 20.1875 C 1.304688 20.1875 0.296875 19.164062 0.296875 17.125 C 0.296875 14.71875 1.539062 11.910156 4.03125 8.703125 C 4.96875 7.492188 6.148438 6.191406 7.578125 4.796875 C 9.015625 3.398438 9.796875 2.609375 9.921875 2.421875 C 10.054688 2.234375 11.707031 -0.847656 14.875 -6.828125 C 12.757812 -4.515625 10.800781 -2.640625 9 -1.203125 C 7.195312 0.234375 5.460938 1.039062 3.796875 1.21875 L 3.5625 1.21875 C 2.707031 1.21875 1.859375 0.9375 1.015625 0.375 C 0.179688 -0.1875 -0.234375 -1.171875 -0.234375 -2.578125 C -0.234375 -4.660156 0.328125 -6.679688 1.453125 -8.640625 C 1.847656 -9.316406 2.535156 -10.46875 3.515625 -12.09375 C 4.492188 -13.726562 5.398438 -15.304688 6.234375 -16.828125 C 7.023438 -18.035156 7.835938 -19.441406 8.671875 -21.046875 C 9.503906 -22.648438 10.140625 -23.796875 10.578125 -24.484375 C 11.023438 -25.179688 11.445312 -25.53125 11.84375 -25.53125 C 12.238281 -25.53125 12.75 -25.28125 13.375 -24.78125 C 14 -24.289062 14.3125 -23.703125 14.3125 -23.015625 C 14.3125 -22.335938 12.867188 -19.378906 9.984375 -14.140625 C 7.109375 -8.910156 5.671875 -5.9375 5.671875 -5.21875 C 5.671875 -5.039062 5.757812 -4.953125 5.9375 -4.953125 C 6.53125 -4.953125 7.84375 -5.789062 9.875 -7.46875 C 11.90625 -9.15625 14.15625 -11.316406 16.625 -13.953125 C 19.375 -16.878906 21.53125 -19.550781 23.09375 -21.96875 C 23.289062 -22.269531 23.445312 -22.503906 23.5625 -22.671875 C 23.6875 -22.835938 23.84375 -23.054688 24.03125 -23.328125 C 24.21875 -23.609375 24.367188 -23.820312 24.484375 -23.96875 C 24.609375 -24.125 24.753906 -24.304688 24.921875 -24.515625 C 25.085938 -24.722656 25.234375 -24.882812 25.359375 -25 C 25.492188 -25.113281 25.640625 -25.222656 25.796875 -25.328125 C 26.035156 -25.546875 26.300781 -25.65625 26.59375 -25.65625 C 26.894531 -25.65625 27.347656 -25.585938 27.953125 -25.453125 C 28.554688 -25.328125 28.914062 -25.1875 29.03125 -25.03125 C 29.15625 -24.875 29.285156 -24.734375 29.421875 -24.609375 C 29.640625 -24.359375 29.75 -24.128906 29.75 -23.921875 C 29.75 -23.710938 29.660156 -23.4375 29.484375 -23.09375 C 29.304688 -22.757812 28.285156 -21.019531 26.421875 -17.875 C 20.921875 -8.59375 17.140625 -1.820312 15.078125 2.4375 C 18.421875 -0.375 23.125 -4.539062 29.1875 -10.0625 C 29.425781 -10.257812 29.671875 -10.359375 29.921875 -10.359375 C 30.597656 -10.359375 30.9375 -9.3125 30.9375 -7.21875 C 30.9375 -6.601562 30.828125 -6.195312 30.609375 -6 C 24.035156 -0.945312 17.84375 4.703125 12.03125 10.953125 Z M 12.03125 10.953125 "/></g></g></g><g clip-path="url(#655c486543)"><path fill="#000000" d="M 257.933594 363.296875 C 266.648438 352.855469 280.632812 353.058594 293.300781 353.363281 C 296.847656 353.464844 300.292969 353.566406 303.535156 353.363281 C 309.210938 353.058594 316.40625 351.4375 323.601562 348.703125 C 328.570312 346.777344 333.535156 344.34375 337.894531 341.40625 C 330.089844 353.972656 326.238281 354.578125 315.394531 357.417969 C 334.75 356.808594 339.617188 343.835938 345.492188 332.285156 C 338.09375 339.480469 332.824219 343.128906 322.894531 346.878906 C 316.003906 349.511719 309.007812 351.132812 303.433594 351.4375 C 300.292969 351.640625 296.847656 351.539062 293.300781 351.4375 C 280.125 351.132812 265.632812 350.828125 256.410156 362.078125 Z M 258.742188 387.011719 C 262.289062 387.515625 265.632812 385.691406 267.152344 382.550781 C 268.472656 379.914062 268.066406 376.875 266.445312 374.542969 C 268.574219 377.484375 268.777344 381.4375 266.851562 384.578125 C 264.621094 388.226562 259.957031 389.746094 256.007812 388.125 C 244.65625 383.664062 252.257812 368.058594 261.074219 363.597656 C 273.742188 357.214844 290.464844 362.992188 304.449219 362.28125 C 312.859375 361.875 320.15625 360.660156 327.351562 356.300781 C 322.488281 362.484375 319.042969 368.058594 311.136719 370.996094 C 306.273438 372.820312 300.699219 372.921875 294.515625 371.097656 C 289.957031 369.78125 282.050781 366.640625 274.148438 370.695312 C 280.429688 365.828125 287.929688 367.144531 295.023438 369.273438 C 300.800781 370.894531 305.867188 370.792969 310.429688 369.171875 C 314.378906 367.753906 317.828125 365.121094 320.867188 361.574219 C 315.191406 363.195312 309.71875 364.003906 304.449219 364.207031 C 291.070312 364.917969 273.640625 359.34375 261.882812 365.320312 C 252.964844 369.882812 247.1875 385.289062 258.742188 387.011719 Z M 343.972656 320.425781 C 341.441406 332.285156 334.648438 335.425781 328.265625 338.972656 C 345.695312 333.703125 345.796875 320.121094 348.332031 313.027344 C 332.523438 328.535156 308.402344 343.53125 286.511719 348.09375 C 303.941406 349.105469 333.636719 331.167969 343.972656 320.425781 Z M 343.972656 320.425781 " fill-opacity="1" fill-rule="nonzero"/></g><g clip-path="url(#70a57bb78c)"><path fill="#000000" d="M 259.460938 364.621094 C 268.179688 354.179688 282.164062 354.382812 294.832031 354.6875 C 298.378906 354.789062 301.824219 354.890625 305.066406 354.6875 C 310.742188 354.382812 317.9375 352.761719 325.132812 350.027344 C 330.101562 348.101562 335.066406 345.667969 339.421875 342.730469 C 331.621094 355.296875 327.769531 355.902344 316.925781 358.742188 C 336.28125 358.132812 341.148438 345.160156 347.023438 333.609375 C 339.625 340.804688 334.355469 344.453125 324.425781 348.203125 C 317.535156 350.835938 310.539062 352.457031 304.964844 352.761719 C 301.824219 352.964844 298.378906 352.863281 294.832031 352.761719 C 281.65625 352.457031 267.164062 352.15625 257.941406 363.402344 Z M 260.273438 388.335938 C 263.820312 388.839844 267.164062 387.015625 268.683594 383.875 C 270.003906 381.242188 269.597656 378.199219 267.976562 375.867188 C 270.105469 378.808594 270.304688 382.761719 268.382812 385.902344 C 266.152344 389.550781 261.488281 391.070312 257.535156 389.449219 C 246.1875 384.988281 253.789062 369.382812 262.605469 364.921875 C 275.273438 358.539062 291.996094 364.316406 305.980469 363.605469 C 314.390625 363.199219 321.6875 361.984375 328.882812 357.625 C 324.019531 363.808594 320.574219 369.382812 312.667969 372.320312 C 307.804688 374.144531 302.230469 374.246094 296.046875 372.421875 C 291.488281 371.105469 283.582031 367.964844 275.679688 372.019531 C 281.960938 367.152344 289.460938 368.472656 296.554688 370.597656 C 302.332031 372.21875 307.398438 372.121094 311.960938 370.496094 C 315.910156 369.078125 319.355469 366.445312 322.398438 362.898438 C 316.722656 364.519531 311.25 365.328125 305.980469 365.53125 C 292.601562 366.242188 275.171875 360.667969 263.414062 366.648438 C 254.496094 371.207031 248.71875 386.613281 260.273438 388.335938 Z M 345.503906 321.75 C 342.972656 333.609375 336.179688 336.75 329.796875 340.296875 C 347.226562 335.027344 347.328125 321.445312 349.863281 314.351562 C 334.050781 329.859375 309.933594 344.859375 288.042969 349.417969 C 305.472656 350.429688 335.167969 332.492188 345.503906 321.75 Z M 345.503906 321.75 " fill-opacity="1" fill-rule="nonzero"/></g></svg>