<svg xmlns="http://www.w3.org/2000/svg" xmlns:xlink="http://www.w3.org/1999/xlink" width="1000" zoomAndPan="magnify" viewBox="0 0 750 749.999995" height="1000" preserveAspectRatio="xMidYMid meet" version="1.0"><defs><clipPath id="6cae5cb1e4"><path d="M 146 175 L 623 175 L 623 580 L 146 580 Z M 146 175 " clip-rule="nonzero"/></clipPath><clipPath id="8f92a7ed5d"><path d="M 428.460938 128.136719 L 622.210938 427.984375 L 321.730469 622.140625 L 127.980469 322.292969 Z M 428.460938 128.136719 " clip-rule="nonzero"/></clipPath><clipPath id="bfb26f64fd"><path d="M 430.542969 121.40625 L 626.734375 425.035156 L 321.847656 622.042969 L 125.652344 318.414062 Z M 430.542969 121.40625 " clip-rule="nonzero"/></clipPath></defs><g clip-path="url(#6cae5cb1e4)"><g clip-path="url(#8f92a7ed5d)"><g clip-path="url(#bfb26f64fd)"><path fill="#ffffff" d="M 299.476562 553.265625 C 295.085938 556.101562 289.976562 556.132812 288.085938 553.207031 C 286.195312 550.28125 288.320312 545.632812 292.710938 542.796875 C 297.097656 539.960938 312.371094 533.367188 314.261719 536.292969 C 316.152344 539.21875 303.863281 550.433594 299.476562 553.265625 Z M 442.105469 186.417969 C 447.84375 181.621094 452.535156 177.058594 451.71875 175.625 C 450.847656 174.113281 444.542969 176.003906 437.609375 178.957031 C 430.628906 181.832031 423.070312 185.839844 419.605469 188.082031 C 412.675781 192.558594 408.597656 198.574219 410.515625 201.375 C 412.433594 204.171875 419.417969 202.824219 426.320312 198.472656 C 429.582031 196.257812 436.316406 191.140625 442.105469 186.417969 Z M 478.46875 278.164062 C 485.90625 271.941406 492.089844 266.308594 491.144531 264.847656 C 490.199219 263.382812 482.375 266.476562 473.617188 270.824219 C 464.9375 275.125 455.320312 280.679688 450.90625 283.644531 C 442 289.617188 436.53125 296.863281 438.449219 299.660156 C 440.367188 302.460938 449.023438 299.8125 457.851562 293.886719 C 462.320312 291.003906 471.03125 284.390625 478.46875 278.164062 Z M 552.824219 385.636719 C 550.984375 382.785156 533.117188 390.945312 527.882812 394.328125 C 522.648438 397.710938 519.90625 402.757812 521.796875 405.683594 C 523.6875 408.609375 529.414062 408.183594 534.648438 404.800781 C 539.835938 401.339844 554.664062 388.484375 552.824219 385.636719 Z M 466.40625 388.871094 C 473.695312 382.417969 479.480469 376.167969 478.507812 374.832031 C 477.484375 373.417969 469.933594 377.097656 461.449219 381.707031 C 452.96875 386.3125 443.558594 391.847656 439.09375 394.734375 C 430.289062 400.53125 424.546875 407.519531 426.386719 410.367188 C 428.226562 413.214844 437.054688 411.003906 445.964844 405.027344 C 450.378906 402.066406 459.121094 395.328125 466.40625 388.871094 Z M 340.734375 264.472656 C 338.894531 261.621094 310.792969 276.398438 302.246094 281.921875 C 293.699219 287.441406 288.261719 294.230469 290.152344 297.15625 C 291.996094 300.003906 300.464844 297.914062 309.011719 292.390625 C 317.558594 286.867188 342.574219 267.320312 340.734375 264.472656 Z M 318.878906 395.148438 C 317.039062 392.300781 290.167969 406.277344 282.082031 411.503906 C 274 416.726562 268.871094 423.3125 270.761719 426.238281 C 272.652344 429.164062 280.6875 427.246094 288.847656 421.972656 C 297.007812 416.699219 320.71875 397.996094 318.878906 395.148438 Z M 382.925781 553.039062 C 391.273438 545.351562 397.660156 537.84375 396.609375 536.554688 C 395.511719 535.191406 387.125 540.285156 377.660156 546.074219 C 368.117188 551.910156 357.371094 558.417969 352.214844 561.753906 C 342.023438 568.445312 334.824219 575.714844 336.5625 578.742188 C 338.25 581.6875 348.558594 579.066406 359.054688 572.171875 C 364.242188 568.714844 374.550781 560.851562 382.925781 553.039062 Z M 447.339844 456.304688 C 445.5 453.457031 404.847656 476.339844 392.375 484.398438 C 379.824219 492.507812 371.15625 501.386719 373.046875 504.308594 C 374.9375 507.234375 386.589844 502.980469 399.140625 494.871094 C 411.6875 486.761719 449.230469 459.230469 447.339844 456.304688 Z M 192.710938 330.105469 C 201.320312 323.671875 208.199219 317.261719 207.304688 315.875 C 206.359375 314.414062 197.867188 318.15625 188.214844 322.644531 C 178.566406 327.132812 167.761719 332.367188 162.664062 335.117188 C 152.464844 340.617188 145.148438 347.199219 146.65625 350.371094 C 148.109375 353.46875 158.027344 351.753906 168.53125 346.058594 C 173.65625 343.183594 184.023438 336.59375 192.710938 330.105469 Z M 263.183594 241.902344 C 272.234375 234.632812 280.007812 228.082031 279.0625 226.621094 C 278.117188 225.15625 268.78125 229.117188 258.40625 234.511719 C 248.03125 239.902344 236.542969 246.78125 231.300781 250.496094 C 220.644531 257.816406 213.789062 266.289062 215.910156 269.0625 C 217.902344 271.8125 227.949219 267.941406 238.453125 260.71875 C 243.617188 257.054688 254.078125 249.09375 263.183594 241.902344 Z M 363.144531 196.296875 C 361.226562 193.5 340.070312 204.332031 333.730469 208.539062 C 327.390625 212.742188 323.902344 218.488281 325.742188 221.339844 C 327.660156 224.136719 334.261719 223.035156 340.601562 218.832031 C 346.941406 214.625 364.984375 199.144531 363.144531 196.296875 Z M 410.609375 368.722656 C 408.691406 365.925781 387.914062 376.839844 381.828125 381.097656 C 375.742188 385.359375 372.328125 391.058594 374.246094 393.855469 C 376.164062 396.65625 382.765625 395.554688 388.929688 391.246094 C 395.015625 386.984375 412.527344 371.523438 410.609375 368.722656 Z M 228.65625 399.753906 C 232.808594 395.542969 236.246094 391.574219 235.300781 390.109375 C 234.355469 388.648438 229.226562 390 223.648438 392.511719 C 218.070312 395.023438 212.148438 398.523438 209.574219 400.625 C 204.300781 404.792969 202.035156 410.40625 204.335938 412.957031 C 206.640625 415.507812 212.277344 414.265625 217.242188 410.292969 C 219.757812 408.449219 224.578125 403.914062 228.65625 399.753906 Z M 548.902344 467.726562 C 547.292969 464.730469 524.6875 473.660156 517.871094 477.300781 C 511.058594 480.9375 506.835938 486.394531 508.445312 489.394531 C 510.054688 492.390625 516.925781 491.878906 523.742188 488.238281 C 530.554688 484.601562 550.558594 470.800781 548.902344 467.726562 Z M 326.804688 475.476562 C 324.964844 472.628906 305.484375 481.832031 299.710938 485.5625 C 293.933594 489.292969 290.808594 494.589844 292.699219 497.515625 C 294.589844 500.441406 300.777344 499.714844 306.472656 496.035156 C 312.25 492.304688 328.695312 478.402344 326.804688 475.476562 Z M 397.261719 301.28125 C 395.421875 298.433594 367.625 313.011719 359.15625 318.484375 C 350.6875 323.957031 345.40625 330.644531 347.296875 333.570312 C 349.1875 336.492188 357.53125 334.375 365.921875 328.953125 C 374.3125 323.53125 399.152344 304.207031 397.261719 301.28125 Z M 420.628906 249.625 C 424.949219 246.175781 428.355469 242.667969 427.539062 241.230469 C 426.746094 239.667969 421.929688 240.488281 416.671875 241.8125 C 411.417969 243.136719 405.667969 245.214844 403.03125 246.371094 C 397.785156 248.890625 394.566406 253.367188 395.945312 256.515625 C 397.324219 259.664062 402.910156 260.199219 408.3125 257.582031 C 411.023438 256.375 416.257812 252.992188 420.628906 249.625 Z M 559.859375 330.996094 C 558.019531 328.148438 536.613281 338.59375 530.226562 342.722656 C 523.835938 346.851562 520.167969 352.496094 522.058594 355.421875 C 523.949219 358.347656 530.601562 357.324219 536.992188 353.195312 C 543.332031 348.988281 561.703125 333.84375 559.859375 330.996094 Z M 611.445312 432.441406 C 618.441406 426.722656 624.210938 421.464844 623.34375 419.953125 C 622.476562 418.441406 615.0625 421.15625 606.820312 424.953125 C 598.582031 428.75 589.558594 433.707031 585.453125 436.46875 C 577.0625 441.890625 571.953125 448.683594 573.84375 451.609375 C 575.761719 454.40625 583.902344 452.3125 592.21875 446.941406 C 596.324219 444.175781 604.472656 438.039062 611.445312 432.441406 Z M 287.496094 326.480469 C 285.65625 323.632812 268.40625 331.394531 263.402344 334.628906 C 258.398438 337.863281 255.8125 342.808594 257.703125 345.734375 C 259.59375 348.660156 265.164062 348.332031 270.167969 345.097656 C 275.171875 341.867188 289.335938 329.332031 287.496094 326.480469 Z M 373.050781 424.09375 C 371.210938 421.246094 351.421875 430.648438 345.570312 434.429688 C 339.71875 438.210938 336.4375 443.605469 338.328125 446.53125 C 340.171875 449.378906 346.484375 448.679688 352.335938 444.902344 C 358.1875 441.121094 374.890625 426.941406 373.050781 424.09375 Z M 373.050781 424.09375 " fill-opacity="1" fill-rule="nonzero"/></g></g></g></svg>